<svg xmlns="http://www.w3.org/2000/svg" width="20" height="20" viewBox="73.447 773.447 20 20"><path d="M76.393 780.958l.764.763a.235.235 0 0 0 .336 0l1.025-1.025 1.026 1.025a.235.235 0 0 0 .336 0l.763-.763a.238.238 0 0 0 0-.337l-1.025-1.025 1.025-1.025a.237.237 0 0 0 0-.336l-.763-.764a.239.239 0 0 0-.336 0l-1.026 1.025-1.025-1.025a.239.239 0 0 0-.336 0l-.764.764a.237.237 0 0 0 0 .336l1.026 1.025-1.026 1.025a.238.238 0 0 0 0 .337zm10.495 2.698l-.763.764a.237.237 0 0 0 0 .336l1.025 1.025-1.025 1.025a.237.237 0 0 0 0 .336l.763.764a.237.237 0 0 0 .336 0l1.026-1.025 1.025 1.025a.237.237 0 0 0 .336 0l.764-.764a.237.237 0 0 0 0-.336l-1.023-1.025 1.025-1.025a.237.237 0 0 0 0-.336l-.763-.764a.235.235 0 0 0-.336 0l-1.025 1.025-1.025-1.025a.24.24 0 0 0-.34 0zm-5.856 4.763a2.513 2.513 0 1 1 .001 5.027 2.513 2.513 0 0 1-.001-5.027zm9.901-14.972a2.515 2.515 0 1 1-.002 5.03 2.515 2.515 0 0 1 .002-5.03zm-6.579 8.104a13.614 13.614 0 0 0-1.648 2.466c-.764 1.479-.942 2.536-.95 2.58a.316.316 0 0 0 .261.365l.023.002a.314.314 0 0 0 .339-.266c.001-.011.169-1.002.887-2.39.424-.823.952-1.613 1.57-2.354a14.76 14.76 0 0 1 2.496-2.344l.349.523.746-1.512c.052-.104-.001-.183-.119-.177l-1.676.112.351.525a15.482 15.482 0 0 0-2.629 2.47zm-10.885-1.135a11.166 11.166 0 0 0 1.304 4.523c1.301 2.446 3.07 3.797 3.145 3.853a.323.323 0 0 0 .19.063.317.317 0 0 0 .192-.571c-.017-.013-1.746-1.336-2.977-3.666a10.493 10.493 0 0 1-1.222-4.261c-.11-1.748.235-3.561 1.026-5.383l.562.281-.101-1.684c-.006-.116-.091-.158-.188-.096l-1.408.929.567.283c-.845 1.936-1.21 3.859-1.09 5.729z"/></svg>