<svg xmlns="http://www.w3.org/2000/svg" width="20" height="20" viewBox="-295.5 406.5 20 20"><path d="M-276.93 408.405h-2.856v-.953a.952.952 0 1 0-1.903 0v.953h-7.621v-.953a.952.952 0 1 0-1.904 0v.953h-2.857c-.789 0-1.429.639-1.429 1.428v15.237c0 .789.64 1.43 1.429 1.43h17.143a1.43 1.43 0 0 0 1.428-1.43v-15.237a1.43 1.43 0 0 0-1.43-1.428zm-14.284 1.906v.951a.953.953 0 1 0 1.905 0v-.951h7.62v.951a.952.952 0 1 0 1.904 0v-.951h2.381v2.856h-16.191v-2.856h2.381zm-2.381 14.284v-9.524h16.191v9.524h-16.191zm11.395-8.095l-4.371 4.119-1.905-1.962a.954.954 0 0 0-1.367 1.329l2.566 2.633a.95.95 0 0 0 1.333.027l5.051-4.762a.953.953 0 0 0 .039-1.348.953.953 0 0 0-1.346-.036z"/></svg>