<svg xmlns="http://www.w3.org/2000/svg" width="20" height="20" viewBox="-164.955 535.044 20 20"><path d="M-156.192 542.787l-8.3 8.289a1.51 1.51 0 0 0-.463 1.107c0 .439.154.805.463 1.097l1.292 1.314c.317.3.687.45 1.109.45.431 0 .796-.15 1.097-.45l8.312-8.302a6.197 6.197 0 0 1-2.115-1.395 6.187 6.187 0 0 1-1.395-2.11zm-4.571 9.166a.748.748 0 0 1-.548.23.748.748 0 0 1-.548-.23c-.155-.154-.232-.337-.232-.548s.077-.394.232-.548a.75.75 0 0 1 .548-.231.75.75 0 0 1 .548.231c.155.154.232.337.232.548s-.077.393-.232.548zm15.704-11.26a.354.354 0 0 0-.286-.122c-.073 0-.36.144-.859.433-.5.287-1.05.616-1.651.986l-.963.59-2.352-1.303v-2.727l3.571-2.057c.13-.09.195-.203.195-.342 0-.138-.065-.251-.195-.34a4.144 4.144 0 0 0-1.31-.566 5.842 5.842 0 0 0-1.481-.201c-1.502 0-2.789.533-3.857 1.601-1.069 1.067-1.603 2.352-1.603 3.853 0 1.502.534 2.785 1.603 3.854 1.068 1.066 2.354 1.6 3.857 1.6 1.146 0 2.196-.338 3.151-1.016s1.623-1.561 2.005-2.648c.187-.543.28-.973.28-1.289a.46.46 0 0 0-.105-.306z"/></svg>