<svg xmlns="http://www.w3.org/2000/svg" width="18" height="20" viewBox="-352.985 347.015 18 20"><path d="M-335.445 347.015h-12.507a.458.458 0 0 0-.345.158.456.456 0 0 0-.115.302v3.935h-1.826a.456.456 0 0 0-.344.158.455.455 0 0 0-.116.301v3.935h-1.827a.456.456 0 0 0-.344.158.455.455 0 0 0-.116.302v10.292c0 .254.206.46.46.46h12.508a.46.46 0 0 0 .46-.46v-3.934h1.826a.46.46 0 0 0 .459-.46v-3.934h1.827a.46.46 0 0 0 .46-.46v-10.293a.46.46 0 0 0-.46-.46zm-2.436.714a.52.52 0 1 1 0 1.042.52.52 0 1 1 0-1.042zm-1.538 0a.52.52 0 1 1 0 1.041.52.52 0 0 1 0-1.041zm-1.178 18.206h-11.314v-7.353h11.314v7.353zm-3.916-8.898a.521.521 0 1 1 1.042.002.521.521 0 0 1-1.042-.002zm1.539 0a.52.52 0 1 1 1.042 0 .52.52 0 1 1-1.042 0zm2.03.52a.52.52 0 1 1 0-1.041.52.52 0 0 1 0 1.041zm2.634 3.985h-1.248v-5.278a.46.46 0 0 0-.459-.46h-9.608v-1.614h11.314l.001 7.352zm-3.916-8.899a.52.52 0 1 1 1.041 0 .52.52 0 0 1-1.041 0zm1.538 0a.52.52 0 1 1 1.042 0 .52.52 0 1 1-1.042 0zm2.031.521a.52.52 0 1 1 0-1.042.52.52 0 1 1 0 1.042zm2.632 3.983h-1.247v-5.278a.46.46 0 0 0-.46-.459h-9.606v-1.615h11.313v7.352zm-.347-8.378a.52.52 0 1 1-.001-1.04.52.52 0 0 1 .001 1.04z"/></svg>