<svg xmlns="http://www.w3.org/2000/svg" width="20" height="20" viewBox="-295.5 406.5 20 20"><path d="M-285.5 414.5c2.2 0 4-1.8 4-4s-1.8-4-4-4-4 1.8-4 4 1.8 4 4 4zm0-6c1.1 0 2 .9 2 2 0 1.101-.9 2.001-2 2.001s-2-.9-2-2.001c0-1.1.9-2 2-2zm-6 10c-2.2 0-4 1.8-4 4s1.8 4 4 4 4-1.8 4-4-1.8-4-4-4zm0 6c-1.1 0-2-.9-2-2 0-1.101.9-2.001 2-2.001s2 .9 2 2.001c0 1.1-.9 2-2 2zm6-9c-1.316 0-2.5 1.184-2.5 2.5 0 1.314 1.184 2.5 2.5 2.5s2.5-1.186 2.5-2.5c0-1.316-1.184-2.5-2.5-2.5zm6 3c-2.2 0-4 1.8-4 4s1.8 4 4 4 4-1.8 4-4-1.8-4-4-4zm0 6c-1.1 0-2-.9-2-2 0-1.101.9-2.001 2-2.001s2 .9 2 2.001c0 1.1-.9 2-2 2z"/></svg>