<svg xmlns="http://www.w3.org/2000/svg" width="20" height="20" viewBox="-295.5 406 20 20"><path d="M-290.407 411.045l.495 1.011 1.107.161a.339.339 0 0 1 .186.58l-.8.786.188 1.11a.338.338 0 0 1-.488.359l-.99-.524-.99.524a.334.334 0 0 1-.454-.142.34.34 0 0 1-.034-.217l.19-1.11-.802-.786a.341.341 0 0 1 .187-.58l1.107-.161.495-1.011a.333.333 0 0 1 .603 0zm5.208 0l.496 1.011 1.107.161a.34.34 0 0 1 .185.58l-.801.786.189 1.11a.34.34 0 0 1-.273.393.327.327 0 0 1-.215-.034l-.99-.524-.99.524a.334.334 0 0 1-.454-.142.34.34 0 0 1-.034-.217l.19-1.11-.802-.786a.342.342 0 0 1-.008-.48.35.35 0 0 1 .194-.1l1.107-.161.496-1.011a.334.334 0 0 1 .603 0zm5.211 0l.493 1.011 1.106.161a.34.34 0 0 1 .187.58l-.801.786.189 1.11a.34.34 0 0 1-.273.393.327.327 0 0 1-.215-.034l-.99-.524-.99.524a.333.333 0 0 1-.453-.142c-.035-.066-.047-.143-.035-.217l.189-1.11-.801-.786a.342.342 0 0 1-.008-.48.35.35 0 0 1 .193-.1l1.107-.161.495-1.011a.333.333 0 0 1 .602 0h.005zM-293.455 406a2.054 2.054 0 0 0-2.045 2.062v11.159a1.72 1.72 0 0 0 1.71 1.727h10.62v4.458a.592.592 0 0 0 .586.594.587.587 0 0 0 .488-.262l3.226-4.79h1.66a1.72 1.72 0 0 0 1.71-1.727v-11.159a2.054 2.054 0 0 0-2.045-2.062h-15.91z"/></svg>