<svg xmlns="http://www.w3.org/2000/svg" width="20" height="20" viewBox="0.5 600.5 20 20"><path d="M17.491 600.5c-1.675 0-3.005 1.402-3.005 3.064a3.08 3.08 0 0 0 1.182 2.43l-1.968 5.62a3.399 3.399 0 0 0-.502-.042c-.28 0-.547.038-.803.113l-1.762-2.858a3.077 3.077 0 0 0 .716-1.98c0-1.709-1.375-3.064-3.005-3.064-1.675 0-3.005 1.402-3.005 3.064 0 .923.403 1.741 1.029 2.304l-2.429 5.255a3.004 3.004 0 0 0-.436-.033c-1.675 0-3.005 1.401-3.005 3.063 0 1.708 1.375 3.064 3.005 3.064s2.959-1.356 3.004-3.064c0-.932-.412-1.758-1.049-2.321l2.428-5.246c.152.025.305.037.465.037.309 0 .609-.046.889-.139l1.733 2.812a3.098 3.098 0 0 0-.778 2.049c0 1.709 1.375 3.063 3.005 3.063 1.675 0 3.005-1.354 3.005-3.063 0-.906-.375-1.717-.979-2.274l2.013-5.746c.082.008.168.012.255.012 1.675 0 3.005-1.355 3.005-3.064-.003-1.701-1.332-3.056-3.008-3.056zM3.505 618.745c-.688 0-1.289-.57-1.289-1.313 0-.701.56-1.314 1.289-1.314.687 0 1.288.572 1.288 1.314-.004.701-.56 1.313-1.288 1.313zm3.56-11.902c0-.701.56-1.314 1.289-1.314s1.288.613 1.288 1.314c0 .7-.56 1.313-1.288 1.313-.688 0-1.289-.613-1.289-1.313zm7.426 7.789c0 .701-.601 1.314-1.289 1.314s-1.288-.571-1.288-1.314c0-.7.56-1.313 1.288-1.313s1.33.613 1.289 1.313zm3-9.758c-.688 0-1.289-.613-1.289-1.313 0-.701.56-1.314 1.289-1.314s1.288.613 1.288 1.314c0 .7-.555 1.313-1.288 1.313z"/></svg>