<svg xmlns="http://www.w3.org/2000/svg" class="si-glyph si-glyph-circle-help" width="20" height="20"><path d="M10 0C4.478 0 0 4.476 0 10s4.478 10 10 10 10-4.476 10-10S15.522 0 10 0zm0 17.5a1.25 1.25 0 1 1 0-2.5 1.25 1.25 0 0 1 0 2.5zm2.059-7.196c-.592.456-.918.707-.918 1.434v1.017c0 .574-.507 1.042-1.134 1.042-.627 0-1.136-.468-1.136-1.042v-1.018c0-1.696 1.039-2.497 1.725-3.027.593-.458.918-.707.918-1.432 0-.818-.676-1.485-1.506-1.485-.832 0-1.507.666-1.507 1.485 0 .576-.51 1.04-1.136 1.04-.625 0-1.136-.464-1.136-1.04 0-1.968 1.696-3.568 3.778-3.568s3.777 1.599 3.777 3.567c0 1.695-1.038 2.495-1.725 3.027z" class="si-glyph-fill" fill-rule="evenodd"/></svg>