<svg xmlns="http://www.w3.org/2000/svg" width="20" height="20" viewBox="-149.5 550.5 20 20"><path d="M-132.455 550.5h-14.106a2.909 2.909 0 0 0-2.939 2.936v14.102c0 1.645 1.294 2.963 2.939 2.963h14.106a2.945 2.945 0 0 0 2.955-2.963v-14.102c0-1.645-1.309-2.936-2.955-2.936zm1.256 17.037c0 .677-.577 1.229-1.256 1.229h-14.106a1.242 1.242 0 0 1-1.241-1.229v-14.102c0-.678.563-1.2 1.241-1.2h14.106c.679 0 1.256.522 1.256 1.2v14.102zm-3.312-9.914h-6.552c-.484 0-.877.338-.877.822s.393.822.877.822h6.552c.484 0 .877-.338.877-.822s-.392-.822-.877-.822zm-9.81-.052a.877.877 0 1 1-.002 1.754.877.877 0 0 1 .002-1.754zm9.81 3.431h-6.552a.87.87 0 0 0-.877.868.87.87 0 0 0 .877.867h6.552a.87.87 0 0 0 .877-.867.87.87 0 0 0-.877-.868zm-9.81.019a.877.877 0 1 1-.002 1.754.877.877 0 0 1 .002-1.754zm9.81 3.452h-6.552a.87.87 0 0 0-.877.867.87.87 0 0 0 .877.868h6.552a.87.87 0 0 0 .877-.868.868.868 0 0 0-.877-.867zm-9.81-.002a.877.877 0 1 1-.001 1.753.877.877 0 0 1 .001-1.753zm9.81-10.319h-10.197c-.484 0-.877.384-.877.868s.393.868.877.868h10.197c.484 0 .877-.384.877-.868s-.392-.868-.877-.868z"/></svg>