<svg xmlns="http://www.w3.org/2000/svg" width="20" height="20" viewBox="-295.5 406.5 20 20"><path fill="#264970" d="M-285.5 406.5c5.523 0 10 4.477 10 10s-4.477 10-10 10-10-4.477-10-10 4.477-10 10-10zm-3.085 3.146a.934.934 0 0 0-.936.936c0 .531.43.936.936.936.531 0 .936-.43.936-.936s-.405-.936-.936-.936m6.222 0a.935.935 0 1 0 0 1.872c.53 0 .936-.43.936-.936s-.406-.936-.936-.936m-3.112-.859a.935.935 0 0 0-.937.936c0 .531.43.937.937.937a.935.935 0 0 0 .936-.937.917.917 0 0 0-.936-.936m5.336 3.49c-.051-.052-.127-.052-.178-.052-.024 0-.076 0-.101.025-.632.252-1.29.43-1.896.581a.332.332 0 0 0-.254.228c-.43 1.188-1.541 2.302-2.705 3.49-.051.051-.102.103-.229.103a.322.322 0 0 1-.228-.103c-1.164-1.188-2.276-2.302-2.706-3.49-.051-.102-.126-.201-.253-.228a13.304 13.304 0 0 1-1.896-.581c-.025-.025-.076-.025-.101-.025a.349.349 0 0 0-.177.052.305.305 0 0 0-.126.252c.101.985.48 1.946 1.188 2.959.658.961 1.518 1.819 2.352 2.681 1.542 1.567 2.984 3.034 3.11 4.755 0 .151.151.277.304.277h1.846a.307.307 0 0 0 .304-.303v-.025c-.05-1.139-.479-2.301-1.315-3.516-.177-.252-.354-.507-.556-.732-.076-.102-.052-.229.024-.279l.178-.177c.834-.86 1.693-1.72 2.352-2.681.708-1.013 1.088-1.974 1.188-2.959a.3.3 0 0 0-.125-.252m-7.283 7.233c-.051-.051-.101-.102-.203-.102-.126 0-.202.102-.252.151-.759 1.162-1.138 2.25-1.214 3.339 0 .075.025.15.076.228.05.05.126.101.228.101h1.795c.152 0 .278-.125.304-.276.05-.531.202-1.062.506-1.619a.454.454 0 0 0-.025-.455 15.408 15.408 0 0 0-1.215-1.367m1.947-6.348c-.558 0-.885-.025-1.012-.025a.28.28 0 0 0-.278.277c0 .051.025.076.025.102.076.203.43.937 1.062 1.543a.392.392 0 0 0 .204.076c.05 0 .125 0 .201-.076.658-.633.986-1.34 1.062-1.543.025-.024.025-.051.025-.102a.281.281 0 0 0-.278-.277c-.125 0-.454.025-1.011.025"/></svg>