<svg xmlns="http://www.w3.org/2000/svg" width="18" height="20"><path d="M16.301 0H1.696C.759 0 0 .741 0 1.653l.013 17.595c0 .469.827.726 1.282.726.456 0 1.208-.257 1.208-.726v-1.76c.012 0 .022.004.022.004h12.897c.017 0 .03-.004.047-.004v1.76c0 .469.817.752 1.261.752.447 0 1.234-.283 1.234-.752L18 1.653C17.999.741 17.24 0 16.301 0zm-2.175 1.151h1.341v2.553h-1.341V1.151zm-2.605 0h1.289v2.5h-1.289v-2.5zm-2.557 0h1.351v2.5H8.964v-2.5zm7.793 11.329H1.242v-1.302h15.515v1.302zM2.502 9.954v-2.5h1.289v2.5H2.502zm2.595-.009v-2.5h1.289v2.5H5.097zm2.563.009V7.445h1.288v2.509H7.66zm9.097-3.75H1.242V4.928h15.515v1.276z"/></svg>