<svg xmlns="http://www.w3.org/2000/svg" width="20" height="20" viewBox="0.5 792.5 20 20"><path d="M17.571 795.43a9.925 9.925 0 0 0-7.071-2.93 9.925 9.925 0 0 0-7.071 2.93 9.929 9.929 0 0 0-2.928 7.07c0 2.67 1.04 5.182 2.929 7.07a9.925 9.925 0 0 0 7.071 2.93 9.933 9.933 0 0 0 7.071-2.93 9.936 9.936 0 0 0 2.929-7.07 9.936 9.936 0 0 0-2.93-7.07zm-12.869 9.213a2.143 2.143 0 1 1 0-4.286 2.143 2.143 0 0 1 0 4.286zm5.798 0a2.143 2.143 0 1 1 0-4.286 2.143 2.143 0 0 1 0 4.286zm5.797 0a2.143 2.143 0 1 1 0-4.286 2.143 2.143 0 0 1 0 4.286z"/></svg>