<svg xmlns="http://www.w3.org/2000/svg" width="20" height="15" viewBox="0.5 600.5 20 15"><path d="M9.266 608.017h2.453v2.448H9.266v-2.448zm3.757 0h2.446v2.505h-2.446v-2.505zm0-3.759h2.427v2.379h-2.427v-2.379zm0-3.758h2.446v2.432h-2.446V600.5zm3.758 7.517h2.446v2.388h-2.446v-2.388zm0-3.759h2.427v2.379h-2.427v-2.379zm0-3.758h2.446v2.432h-2.446V600.5zm-7.515 3.758h2.427v2.379H9.266v-2.379zm0-3.758h2.446v2.432H9.266V600.5zM20.5 611.774H7.763L4.82 600.5H.5l.032 1.174h3.054l3.257 11.354h1.269a1.83 1.83 0 0 0-.098.59c0 1.018.837 1.843 1.871 1.843s1.872-.825 1.872-1.843c0-.207-.035-.404-.099-.59h3.974a1.862 1.862 0 1 0 3.52 0H20.5v-1.254z"/></svg>