<svg xmlns="http://www.w3.org/2000/svg" width="20" height="16" viewBox="0.5 792.5 20 16"><path d="M13.337 795.449v-1.572c0-.761-.606-1.377-1.353-1.377H1.853c-.747 0-1.353.616-1.353 1.377v5.285c0 .76.605 1.377 1.353 1.377h.996v-2.682c0-1.328 1.061-2.408 2.365-2.408h8.123zm3.361 3.981v-1.572c0-.76-.605-1.377-1.353-1.377H5.213c-.747 0-1.353.617-1.353 1.377v5.285c0 .76.606 1.377 1.353 1.377H6.65v-2.682c0-1.328 1.061-2.408 2.365-2.408h7.683zm2.449 1.031H9.016c-.747 0-1.353.617-1.353 1.377v5.285c0 .76.606 1.377 1.353 1.377h10.132c.747 0 1.353-.617 1.353-1.377v-5.285a1.366 1.366 0 0 0-1.354-1.377z"/></svg>