<svg xmlns="http://www.w3.org/2000/svg" width="20" height="20" viewBox="0.5 792.5 20 20"><path d="M20.456 800.07a.92.92 0 0 0-.734-.648l-5.809-.884-2.598-5.508c-.153-.324-.469-.53-.815-.53s-.662.206-.815.53l-2.597 5.508-5.809.884a.922.922 0 0 0-.734.648.983.983 0 0 0 .23.976l4.203 4.287-.993 6.055a.973.973 0 0 0 .362.931c.158.12.346.182.534.182.145 0 .29-.037.423-.109l5.195-2.858 5.196 2.858c.134.073.28.109.425.109.501-.001.908-.427.908-.952 0-.071-.008-.144-.023-.213l-.984-6.002 4.203-4.287a.987.987 0 0 0 .232-.977z"/></svg>