<svg xmlns="http://www.w3.org/2000/svg" width="20" height="20" viewBox="0.5 792.5 20 20"><path d="M5.987 794.996c-2.993 2.994-3.289 7.721-.9 11.051l-4.202 4.195c-.031.029-.054.064-.08.098a1.313 1.313 0 0 0 .045 1.732c.013.014.021.029.035.043l.005.005a1.324 1.324 0 0 0 1.793.058c.026-.022.054-.039.078-.062l4.219-4.212c3.316 2.399 8.026 2.146 11.02-.849 3.325-3.328 3.334-8.738.023-12.062-3.313-3.325-8.711-3.325-12.036.003zm10.465 10.505c-2.469 2.47-6.475 2.472-8.934.002-2.459-2.47-2.454-6.485.016-8.954 2.468-2.471 6.476-2.473 8.936-.002 2.458 2.47 2.45 6.484-.018 8.954z"/></svg>