<svg xmlns="http://www.w3.org/2000/svg" width="20" height="16" viewBox="-367.5 332.5 20 16"><path d="M-349.167 332.5h-16.667c-.917 0-1.667.777-1.667 1.727v5.391h5.125l1.12-2.97a.837.837 0 0 1 .798-.549c.351.01.659.245.77.591l1.584 4.939 1.71-4.217a.831.831 0 0 1 .737-.527.812.812 0 0 1 .773.47l1.115 2.264h1.129c.46 0 .833.387.833.863 0 .478-.373.864-.833.864h-1.64a.831.831 0 0 1-.742-.471l-.531-1.08-1.875 4.621a.832.832 0 0 1-.768.529h-.033a.837.837 0 0 1-.758-.592l-1.557-4.852-.488 1.293a.834.834 0 0 1-.776.55h-5.694v5.429c0 .949.75 1.727 1.667 1.727h16.667c.917 0 1.667-.777 1.667-1.727v-12.547c.001-.949-.749-1.726-1.666-1.726z"/></svg>