<svg xmlns="http://www.w3.org/2000/svg" width="18" height="20" viewBox="590.5 1292.5 18 20"><path d="M591.885 1311.071H595v-3.214h-3.115v3.214zm3.807 0h3.461v-3.214h-3.461v3.214zm-3.807-3.928H595v-3.571h-3.115v3.571zm3.807 0h3.461v-3.571h-3.461v3.571zm-3.807-4.286H595v-3.215h-3.115v3.215zm7.961 8.214h3.461v-3.214h-3.461v3.214zm-4.154-8.214h3.461v-3.215h-3.461v3.215zm8.308 8.214h3.116v-3.214H604v3.214zm-4.154-3.928h3.461v-3.571h-3.461v3.571zm-3.807-9.643v-3.215a.348.348 0 0 0-.103-.25.328.328 0 0 0-.244-.106H595a.328.328 0 0 0-.244.106.348.348 0 0 0-.103.25v3.215a.35.35 0 0 0 .103.251c.069.071.15.106.244.106h.692a.328.328 0 0 0 .244-.106.35.35 0 0 0 .103-.251zm7.961 9.643h3.116v-3.571H604v3.571zm-4.154-4.286h3.461v-3.215h-3.461v3.215zm4.154 0h3.116v-3.215H604v3.215zm.346-5.357v-3.215a.344.344 0 0 0-.103-.25.328.328 0 0 0-.244-.106h-.692a.326.326 0 0 0-.243.106.348.348 0 0 0-.103.25v3.215a.35.35 0 0 0 .103.251c.068.071.15.106.243.106H604a.328.328 0 0 0 .244-.106.348.348 0 0 0 .102-.251zm4.154-.715v14.286c0 .388-.137.722-.411 1.005a1.314 1.314 0 0 1-.974.424h-15.231c-.375 0-.7-.142-.974-.424a1.395 1.395 0 0 1-.411-1.005v-14.286c0-.387.137-.721.411-1.004s.598-.424.974-.424h1.384v-1.072c0-.49.17-.911.509-1.261s.746-.524 1.222-.524h.692c.476 0 .883.175 1.222.524s.509.771.509 1.261v1.072h4.154v-1.072c0-.49.169-.911.508-1.261s.746-.524 1.222-.524H604c.476 0 .883.175 1.223.524.339.35.508.771.508 1.261v1.072h1.385c.375 0 .7.141.974.424s.41.617.41 1.004z"/></svg>