<svg xmlns="http://www.w3.org/2000/svg" width="152" height="28"><path fill="#3253DC" d="M41.018 8.024c.398 0 .764.333.764.766v14.483c0 .4-.365.732-.764.732h-1.959c-.365 0-.731-.3-.731-.7v-1.331c-.996 1.464-2.69 2.463-5.181 2.463-4.151 0-6.708-2.763-6.708-6.858V8.756c0-.399.366-.732.763-.732h1.959c.399 0 .731.333.731.732v8.257c0 2.665 1.395 4.428 4.152 4.428 2.689 0 4.284-1.832 4.284-4.395v-8.29c0-.399.366-.732.731-.732h1.959M17.4 19.298c1.948-1.609 3.126-4.142 3.126-7.08 0-5.06-3.489-8.922-8.404-8.922S3.72 7.158 3.72 12.218c0 5.061 3.487 8.923 8.402 8.923a8.75 8.75 0 0 0 2.114-.255l-2.014-5.24c-.233-.632.166-.965.664-.965h1.993c.598 0 .864.3.996.633l1.525 3.984M12.123 0c6.709 0 12.123 5.227 12.123 12.218 0 4.483-2.227 8.237-5.592 10.357l1.706 4.459c.232.633-.133.966-.631.966h-2.093c-.498 0-.764-.234-.896-.599l-1.311-3.408c-1.05.288-2.159.444-3.307.444C5.414 24.438 0 19.211 0 12.218 0 5.227 5.414 0 12.123 0m139.82 23.205l-5.547-14.548c-.166-.433-.466-.633-.864-.633h-2.391c-.399 0-.698.2-.863.633l-3.886 10.621-3.985-10.621c-.167-.433-.465-.633-.863-.633h-2.359c-.399 0-.698.2-.864.633l-3.92 10.621-3.918-10.621c-.166-.433-.464-.633-.863-.633h-2.358c-.398 0-.698.2-.864.633l-3.953 10.621-3.919-10.621c-.166-.433-.465-.633-.863-.633h-2.392c-.397 0-.696.2-.863.633l-5.545 14.548c-.168.4.033.8.53.8h2.126c.399 0 .731-.199.863-.599l4.086-10.987 4.084 10.987c.167.433.465.599.864.599h1.959c.399 0 .698-.167.864-.599l4.185-10.987 4.052 10.987c.166.4.465.599.864.599h2.06c.398 0 .697-.199.863-.599l4.085-10.987 4.151 10.987c.166.433.465.599.864.599h1.96c.399 0 .698-.167.863-.599l4.119-10.921 4.051 10.921c.134.4.465.599.863.599h2.193c.497 0 .696-.4.531-.8m-99.501-1.963c2.823 0 4.883-2.332 4.883-5.228 0-2.93-2.06-5.194-4.883-5.194-2.857 0-4.882 2.265-4.882 5.194.001 2.896 2.025 5.228 4.882 5.228m7.574-13.219c.398 0 .73.334.73.766v14.483c0 .4-.332.732-.73.732h-1.96c-.398 0-.764-.333-.764-.732v-1.399c-1.029 1.498-2.922 2.564-5.248 2.564-4.285 0-8.004-3.396-8.004-8.456 0-4.994 3.719-8.424 8.037-8.424 2.292 0 4.218 1.065 5.214 2.564V8.789c0-.432.365-.766.764-.766h1.961M82.4 20.475c-.398-.531-.797-.365-1.162-.166-.864.5-1.826.966-3.023.966-2.889 0-4.815-2.297-4.815-5.261s1.926-5.294 4.815-5.294c1.197 0 2.226.433 3.09.965.364.233.797.367 1.162-.132l.931-1.299c.398-.566.066-.932-.167-1.099-1.361-1.032-3.155-1.598-5.114-1.598-4.949 0-8.237 3.662-8.237 8.457s3.288 8.423 8.237 8.423c1.959 0 3.753-.566 5.114-1.598.233-.168.598-.566.167-1.1l-.998-1.264zm10.229.732c2.857 0 4.882-2.297 4.882-5.193 0-2.93-2.025-5.194-4.882-5.194-2.855 0-4.881 2.264-4.881 5.194 0 2.896 2.025 5.193 4.881 5.193m0-13.616c4.651 0 8.371 3.662 8.371 8.423 0 4.795-3.72 8.423-8.371 8.423-4.648 0-8.369-3.628-8.369-8.423 0-4.761 3.721-8.423 8.369-8.423M66.89.433h-1.96c-.398 0-.764.366-.764.766V23.24c0 .398.365.765.764.765h1.959c.432 0 .731-.367.731-.765V1.198c.001-.399-.298-.765-.73-.765"/></svg>