<svg xmlns="http://www.w3.org/2000/svg" xmlns:xlink="http://www.w3.org/1999/xlink" width="55" height="28"><path fill="#F8971D" d="M47.286 16.056a5.093 5.093 0 0 0-2.424-.606c-1.147 0-1.969.375-1.978.378l-1.013.47.658-.901c.538-.735 1.237-1.108 2.078-1.108 1.52 0 2.946 1.245 3.006 1.298l1.853 1.637-2.18-1.168z"/><path fill="#F8971D" d="M47.422 15.802s-2.936-2.593-4.659-.235c0-.001 2.251-1.053 4.659.235zM42.464 16.454s-3.189 2.276-1.274 4.481c0 .001-.522-2.425 1.274-4.481z"/><path fill="#FAB915" d="M36.148 18.967l.042-.142c.062-.21.117-.392.132-.599.037-.515-.02-1.02-.116-1.619-.063-.397-.185-.774-.312-1.173-.066-.205-.132-.41-.19-.618-.366-1.311-.331-2.622.109-4.013.179-.565.416-.852.443-.883l1.417-1.646-.936 1.959c-.36.752-.241 1.812-.222 1.957.161.575.164.581.36 1.125.114.318.295.818.608 1.713.91 2.593-1.009 4.992-1.091 5.093l-.898 1.104.654-2.258z"/><path fill="#FAB915" d="M36.476 10.109s-.221.255-.387.781c-.409 1.29-.474 2.535-.107 3.848.17.611.41 1.193.51 1.823.089.559.159 1.118.119 1.686-.021.289-.106.526-.185.8l-.259.893s1.909-2.346 1.043-4.816c-.866-2.47-.713-1.928-.979-2.875-.001-.001-.185-1.243.245-2.14z"/><path fill="#F8971D" d="M41.64 25.76l.011-.021c.454-.828.142-2.767-.022-3.472-.835-2.128-.121-3.995.114-4.61l.017-.044c.21-.555.463-.827.492-.856l1.507-1.566-1.045 1.905c-.401.73-.343 1.795-.333 1.94.129.583.131.589.295 1.141.096.324.248.834.511 1.748.761 2.64-1.29 4.928-1.377 5.023L40.85 28l.79-2.24z"/><path fill="#F8971D" d="M42.459 16.957s-.234.243-.43.759c-.196.517-.952 2.378-.125 4.466 0 0 .611 2.579 0 3.696l-.309.876s2.039-2.234 1.313-4.75c-.725-2.515-.603-1.964-.815-2.925.001 0-.112-1.251.366-2.122z"/><defs><path id="a" d="M24.12 3.497c.054-.039.427.148.482.177.156.082.293.179.315.365.053.447-.396.7-.775.734 0 0 .476.391.504.743 0 0 .429.249.806.128.134-.044.427.037.507.044 0 0-.06-.866-.239-1.097 0 0 .37.199.512.923l.025.45.432.038-.178-.799c-.133-.6-.526-1.196-1.088-1.475a2.65 2.65 0 0 0-.695-.223c-.096-.018-.264-.058-.407-.058a.367.367 0 0 0-.201.05"/></defs><clipPath id="b"><use xlink:href="#a" overflow="visible"/></clipPath><linearGradient id="c" gradientUnits="userSpaceOnUse" x1="1.797" y1="-11.22" x2="2.086" y2="-11.22" gradientTransform="matrix(8.0417 8.4775 8.4775 -8.0417 105.14 -101.738)"><stop offset="0" stop-color="#ba141a"/><stop offset=".489" stop-color="#f15822"/><stop offset="1" stop-color="#ba141a"/></linearGradient><path clip-path="url(#b)" fill="url(#c)" d="M25.472 2.168l2.494 2.625-2.629 2.491-2.494-2.626z"/><defs><path id="d" d="M20.447 2.061c.943.234 1.786.616 1.523 1.75-.103.442-.748.596-1.156.569.282.099.551.234.758.453.017.019.322.418.293.432 0 0 .896-.412 1.154-.347 0 0 .115-.286-.021-.701-.136-.414-.304-.77-.304-.771.016.033.191.094.227.118.136.096.234.219.324.357.186.287.371.687.281 1.037.139.031.277.071.415.107-.039-.307-.056-.652-.147-.949a2.744 2.744 0 0 0-.487-.926c-.503-.617-1.35-1.137-2.167-1.144l-.125-.001a8.348 8.348 0 0 0-.568.016"/></defs><clipPath id="e"><use xlink:href="#d" overflow="visible"/></clipPath><linearGradient id="f" gradientUnits="userSpaceOnUse" x1="4.572" y1="-6.859" x2="4.862" y2="-6.859" gradientTransform="scale(16.119 -16.119) rotate(-67.39 8.015 -1.049)"><stop offset="0" stop-color="#ba141a"/><stop offset=".489" stop-color="#f15822"/><stop offset="1" stop-color="#ba141a"/></linearGradient><path clip-path="url(#e)" fill="url(#f)" d="M23.424.808l1.661 3.981-4.122 1.714-1.66-3.982z"/><defs><path id="g" d="M17.047 3.155c.344.011.689.022 1.023.115.271.075.617.286.655.59.042.343-.24.585-.547.65 0 0 .705.407.884.7l.808-.278.144-.049s-.033-.603-.657-.992c0 0 .814.018 1.328.971l.313-.067c-.027.006-.619-.787-.672-.841a3.056 3.056 0 0 0-1.418-.809 3.395 3.395 0 0 0-.8-.086 7.01 7.01 0 0 0-1.061.096"/></defs><clipPath id="h"><use xlink:href="#g" overflow="visible"/></clipPath><linearGradient id="i" gradientUnits="userSpaceOnUse" x1="1.763" y1="-9.068" x2="2.052" y2="-9.068" gradientTransform="matrix(10.2588 9.0359 9.0359 -10.2588 81 -106.455)"><stop offset="0" stop-color="#ba141a"/><stop offset=".489" stop-color="#f15822"/><stop offset="1" stop-color="#ba141a"/></linearGradient><path clip-path="url(#h)" fill="url(#i)" d="M18.773 1.104L22.066 4l-2.794 3.167-3.293-2.896z"/><defs><path id="j" d="M15.962 4.822c.223-.068.6.047.792.154.411.23.019.422-.281.489l.874.376.623-.386-.249-.289.541.145c.029.007.19-.203.215-.23-.568-.195-1.15-.372-1.74-.372-.258 0-.516.033-.775.113"/></defs><clipPath id="k"><use xlink:href="#j" overflow="visible"/></clipPath><linearGradient id="l" gradientUnits="userSpaceOnUse" x1="-6.996" y1="-11.75" x2="-6.707" y2="-11.75" gradientTransform="matrix(8.7012 0 0 -8.7012 76.836 -96.953)"><stop offset="0" stop-color="#ba141a"/><stop offset=".489" stop-color="#f15822"/><stop offset="1" stop-color="#ba141a"/></linearGradient><path clip-path="url(#k)" fill="url(#l)" d="M15.962 4.709h2.515v1.133h-2.515z"/><defs><path id="m" d="M15.502 5.798c-.422.135-.662.317-.662.317s.306-.097.633-.003c.327.093.499.324.251.385s-.672.034-.816.08c-.143.045-.482.225-.482.225s.465-.094.609-.015c.144.08.391.359-.107.41-.498.05-.824.207-.824.207s.394-.068.553.31c0 0 .67-.196.888-.444.219-.247.795-.985.906-1.073l-.111-.162.23-.02.158-.192s-.395-.077-.777-.077a1.518 1.518 0 0 0-.449.052"/></defs><clipPath id="n"><use xlink:href="#m" overflow="visible"/></clipPath><linearGradient id="o" gradientUnits="userSpaceOnUse" x1="-2.508" y1="-12.395" x2="-2.218" y2="-12.395" gradientTransform="matrix(8.6272 2.8338 2.8338 -8.6272 70.992 -93.484)"><stop offset="0" stop-color="#ba141a"/><stop offset=".489" stop-color="#f15822"/><stop offset="1" stop-color="#ba141a"/></linearGradient><path clip-path="url(#n)" fill="url(#o)" d="M14.358 4.968l2.954.969-.841 2.553-2.953-.969z"/><defs><path id="p" d="M24.076 7.051c-.158.062-.175.301-.058.457.094.125.36.146.36.146s-.451-.025-.322.241l.129.268c.946.129 1.719.312 1.719.312-.186-.253-.241-.947-.241-.947s-1.052-.491-1.479-.491a.27.27 0 0 0-.108.014"/></defs><clipPath id="q"><use xlink:href="#p" overflow="visible"/></clipPath><linearGradient id="r" gradientUnits="userSpaceOnUse" x1="18.487" y1="-9.71" x2="18.775" y2="-9.71" gradientTransform="scale(-6.1427 6.1427) rotate(77.448 .454 -18.378)"><stop offset="0" stop-color="#920609"/><stop offset=".07" stop-color="#920609"/><stop offset=".489" stop-color="#f0492c"/><stop offset=".844" stop-color="#920609"/><stop offset=".957" stop-color="#ed1e25"/><stop offset="1" stop-color="#ed1e25"/></linearGradient><path clip-path="url(#q)" fill="url(#r)" d="M26.21 7.103l-.4 1.794-2.215-.492.401-1.795z"/><defs><path id="s" d="M21.946 6.729c.395.271.295.35.295.35l-.168.099c-.287.059 0 .747 0 .747l1.728.191s.086-.002-.003-.191c-.23-.498-.359-1.195-.359-1.195l-1.366-.541c-.35.076-.127.54-.127.54"/></defs><clipPath id="t"><use xlink:href="#s" overflow="visible"/></clipPath><linearGradient id="u" gradientUnits="userSpaceOnUse" x1="14.712" y1="-11.398" x2="15.001" y2="-11.398" gradientTransform="scale(-6.791 6.791) rotate(89.869 -.5 -14.29)"><stop offset="0" stop-color="#920609"/><stop offset=".07" stop-color="#920609"/><stop offset=".489" stop-color="#f0492c"/><stop offset=".844" stop-color="#920609"/><stop offset=".957" stop-color="#ed1e25"/><stop offset="1" stop-color="#ed1e25"/></linearGradient><path clip-path="url(#t)" fill="url(#u)" d="M21.721 6.186h2.168v1.933h-2.168z"/><defs><path id="v" d="M19.776 6.433c.399.27.324.372.324.372l-.188.104c-.305.062 0 .909 0 .909l1.834.087s.166 0-.003-.203c-.372-.448-.09-1.613-.09-1.613l-1.673-.243c-.331.086-.204.587-.204.587"/></defs><clipPath id="w"><use xlink:href="#v" overflow="visible"/></clipPath><linearGradient id="x" gradientUnits="userSpaceOnUse" x1="10.422" y1="-8.32" x2="10.711" y2="-8.32" gradientTransform="matrix(.4892 9.248 9.248 -.4892 92.555 -94.688)"><stop offset="0" stop-color="#920609"/><stop offset=".07" stop-color="#920609"/><stop offset=".489" stop-color="#f0492c"/><stop offset=".844" stop-color="#920609"/><stop offset=".957" stop-color="#ed1e25"/><stop offset="1" stop-color="#ed1e25"/></linearGradient><path clip-path="url(#w)" fill="url(#x)" d="M21.906 5.725l.115 2.174-2.408.128-.115-2.175z"/><defs><path id="y" d="M19.246 5.951s-.848.067-1.477.363c0 0-.38.16-.4.286-.02.125-.01.341.12.468.092.09.164.09.227.09.025 0 .05 0 .073.006.08.021.167.072.167.072l-.247.136s-.13.053-.13.136c0 .084.08.403.08.403s.034.257.24.244c.26-.015.579-.13 1.02-.223.429-.09.679-.105.679-.105s-.331-.479-.281-.879c.05-.4.099-.724.129-.766.03-.042.05-.231.05-.231h-.25z"/></defs><clipPath id="z"><use xlink:href="#y" overflow="visible"/></clipPath><linearGradient id="A" gradientUnits="userSpaceOnUse" x1="11.172" y1="-10.529" x2="11.461" y2="-10.529" gradientTransform="matrix(1.2747 7.7054 7.7054 -1.2747 85.21 -93.39)"><stop offset="0" stop-color="#920609"/><stop offset=".07" stop-color="#920609"/><stop offset=".489" stop-color="#f0492c"/><stop offset=".844" stop-color="#920609"/><stop offset=".957" stop-color="#ed1e25"/><stop offset="1" stop-color="#ed1e25"/></linearGradient><path clip-path="url(#z)" fill="url(#A)" d="M19.536 5.59l.418 2.518-2.545.421-.417-2.518z"/><defs><path id="B" d="M15.823 8.065c-.345.526-.58 1.406-.559 1.812.018.35.035.419.125.569.089.149.404.059.509 0 .105-.06.165-.3.165-.3s.104 0 .209.165c.105.164.135.119.509.134.374.015.225-.763.334-1.256s.549-.918.549-.918c-.749-.634-.515-1.585-.515-1.585-.006-.021-.019-.03-.037-.03-.194 0-1.019.996-1.289 1.409"/></defs><clipPath id="C"><use xlink:href="#B" overflow="visible"/></clipPath><linearGradient id="D" gradientUnits="userSpaceOnUse" x1="-.56" y1="-10.518" x2="-.271" y2="-10.518" gradientTransform="matrix(9.306 5.12 5.12 -9.306 74.547 -86.918)"><stop offset="0" stop-color="#920609"/><stop offset=".07" stop-color="#920609"/><stop offset=".489" stop-color="#f0492c"/><stop offset=".844" stop-color="#920609"/><stop offset=".957" stop-color="#ed1e25"/><stop offset="1" stop-color="#ed1e25"/></linearGradient><path clip-path="url(#C)" fill="url(#D)" d="M15.805 5.635l3.526 1.936-2.229 4.046-3.525-1.937z"/><defs><path id="E" d="M15.262 10.607s-.048.091 0 .344c.056.286.109.394.303.789.195.396.734.846.734.846s.285-.075.393-.194c.106-.12.132-.27.132-.27s.12.12.255.194c.134.075.451-.149.451-.149.167-.18-.073-.427-.073-.427-.431-.382-.511-1.133-.511-1.133-.949.399-1.684 0-1.684 0"/></defs><clipPath id="F"><use xlink:href="#E" overflow="visible"/></clipPath><linearGradient id="G" gradientUnits="userSpaceOnUse" x1="-9.957" y1="-6.891" x2="-9.668" y2="-6.891" gradientTransform="scale(8.647 -8.647) rotate(20.722 -19.142 27.98)"><stop offset="0" stop-color="#920609"/><stop offset=".07" stop-color="#920609"/><stop offset=".489" stop-color="#f0492c"/><stop offset=".844" stop-color="#920609"/><stop offset=".957" stop-color="#ed1e25"/><stop offset="1" stop-color="#ed1e25"/></linearGradient><path clip-path="url(#F)" fill="url(#G)" d="M14.559 10.855l2.827-1.068.966 2.551-2.827 1.068z"/><g><defs><path id="H" d="M17.66 12.447c-.392.387-1.229.203-1.229.203.595.632 2.314 1.163 2.314 1.163s-.029-.12-.187-.435c-.157-.314-.511-.75-.511-.75-.189-.187-.268-.315-.268-.315l-.119.134z"/></defs><clipPath id="I"><use xlink:href="#H" overflow="visible"/></clipPath><linearGradient id="J" gradientUnits="userSpaceOnUse" x1="-11.704" y1="-4.344" x2="-11.415" y2="-4.344" gradientTransform="scale(8.2332 -8.2332) rotate(31.981 -9.534 20.973)"><stop offset="0" stop-color="#920609"/><stop offset=".07" stop-color="#920609"/><stop offset=".489" stop-color="#f0492c"/><stop offset=".844" stop-color="#920609"/><stop offset=".957" stop-color="#ed1e25"/><stop offset="1" stop-color="#ed1e25"/></linearGradient><path clip-path="url(#I)" fill="url(#J)" d="M15.756 12.734l2.341-1.459 1.324 2.118-2.34 1.46z"/></g><g><defs><path id="K" d="M17.11 22.511l.54.521.06-.462s2.735-2.465 6.109.462c0 0 1.548-1.061 2.736-.462l.319-1.655-.48-.349-.508-.299s-.39 1.226-.839 1.286c-.449.06-1.108.09-1.766-1.107-.659-1.195-1.139-2.96-1.139-2.96s-4.702.868-5.032 5.025"/></defs><clipPath id="L"><use xlink:href="#K" overflow="visible"/></clipPath><linearGradient id="M" gradientUnits="userSpaceOnUse" x1="-1.636" y1="-1.674" x2="-1.347" y2="-1.674" gradientTransform="matrix(38.6243 0 0 -38.6243 80.313 -44.438)"><stop offset="0" stop-color="#ba141a"/><stop offset=".489" stop-color="#f15822"/><stop offset="1" stop-color="#ba141a"/></linearGradient><path clip-path="url(#L)" fill="url(#M)" d="M17.11 17.486h9.764v5.546H17.11z"/></g><g><defs><path id="N" d="M25.676 24.215l.149.688h.399c1.087-.119 1.129.061 1.398.539.27.478.817 1.396.817 1.396.025.041.299-.025.336-.037-.068-.266-.282-.508-.333-.785-.047-.265-.003-.573-.003-.843.28-.022.567.134.8.27.57.328 1.079.956 1.079.956s-.179-.747-.33-1.166c-.149-.419-.809-1.076-.958-1.166s-.508.18-1.348.358c-.838.18-.6-.328-.6-.328l.62-.628s.22-.061.04-.3c-.179-.239 0-1.884 0-1.884l-2.066 2.93z"/></defs><clipPath id="O"><use xlink:href="#N" overflow="visible"/></clipPath><linearGradient id="P" gradientUnits="userSpaceOnUse" x1="-5.264" y1="-3.467" x2="-4.975" y2="-3.467" gradientTransform="matrix(16.0625 0 0 -16.0625 110.227 -31.61)"><stop offset="0" stop-color="#f15822"/><stop offset="1" stop-color="#ba141a"/></linearGradient><path clip-path="url(#O)" fill="url(#P)" d="M25.676 21.284h4.642v5.594h-4.642z"/></g><g><defs><path id="Q" d="M12.583 24.517999999999997l.163-2.796-.163 2.796M5.75 16.33s-.199 1.275 1.957 4.307c.8 1.122 1.533 2.982.202 4.044-1.407 1.123-2.737-.834-3.279-1.92-.35-.702-.624-1.438-.916-2.164-.479-1.197-1.078-3.11-2.436-2.751 0 0-1.157.148-1.277 1.269.06-.553 1.142-.522 1.481-.403 1.364.476 1.542 2.776 1.966 3.953.463 1.283.991 2.88 2.023 3.834 1.078.996 2.356 1.555 3.234 1.436.878-.12 1.717-.512 2.196-1.911.479-1.398.12-2.715-.319-3.672-.438-.954-2.505-4.646-2.516-4.665-.657-1.169-.116-2.783 1.426-2.583a3.62 3.62 0 0 1 1.533.614c.792.565 1.356 1.722 1.543 2.645.215 1.057.241 2.289.178 3.36l.442 3.031.708.189 1.159-2.312s.04-4.506-.878-5.622-2.476-3.031-6.03-3.11c-.001-.002-2.597.078-2.397 2.431"/></defs><clipPath id="R"><use xlink:href="#Q" overflow="visible"/></clipPath><linearGradient id="S" gradientUnits="userSpaceOnUse" x1="-.415" y1="-1.223" x2="-.126" y2="-1.223" gradientTransform="matrix(52.0889 0 0 -52.0889 21.625 -42.719)"><stop offset="0" stop-color="#920609"/><stop offset=".07" stop-color="#920609"/><stop offset=".489" stop-color="#f0492c"/><stop offset=".844" stop-color="#920609"/><stop offset=".957" stop-color="#ed1e25"/><stop offset="1" stop-color="#ed1e25"/></linearGradient><path clip-path="url(#R)" fill="url(#S)" d="M0 13.897h15.094v14.155H0z"/></g><g><defs><path id="T" d="M15.329 6.921c-1.43 1.295-2.145 2.763-2.145 4.404 0 1.97 1.159 3.408 3.478 4.316a2731.3 2731.3 0 0 0 6.462 1.854c2.298.831 3.448 2.135 3.448 3.911 0 1.604-.725 2.772-2.173 3.507-1.024.521-2.31.782-3.854.782-1.642 0-3.187-.714-4.636-2.142-.463-.463-1.014-1.167-1.652-2.112 0 .561-.104 1.157-.312 1.794s-.461 1.177-.759 1.62c1.2.56 2.39.955 3.571 1.187 1.181.231 2.362.347 3.542.347 2.342 0 4.258-.608 5.749-1.825 1.354-1.12 2.032-2.443 2.032-3.969 0-2.202-1.13-3.806-3.391-4.811-2.105-.637-4.201-1.274-6.287-1.912-2.261-.772-3.391-1.95-3.391-3.534 0-1.372.463-2.501 1.391-3.391.927-.889 2.202-1.333 3.825-1.333 1.411 0 2.374.44 3.458.827 1.148.41 2.156.677 2.331.677.03 0-.178-.219.2-.531.259-.215.329-.22.561-.625a16 16 0 0 0-2.724-.94 11.067 11.067 0 0 0-2.579-.304c-2.494.001-4.542.735-6.145 2.203"/></defs><clipPath id="U"><use xlink:href="#T" overflow="visible"/></clipPath><linearGradient id="V" gradientUnits="userSpaceOnUse" x1="-1.044" y1="-1.486" x2="-.754" y2="-1.486" gradientTransform="matrix(51.5332 0 0 -51.5332 66.969 -61.063)"><stop offset="0" stop-color="#ba141a"/><stop offset=".489" stop-color="#f15822"/><stop offset="1" stop-color="#ba141a"/></linearGradient><path clip-path="url(#U)" fill="url(#V)" d="M13.184 4.719h14.894V26.39H13.184z"/></g><g><defs><path id="W" d="M13.146 21.732c.006.096-.178.048-.364 0-.165-.043-.332-.086-.374-.029-.09.119.09 2.362.15 3.05.06.688.12.867.12.867h-.868v.479s-.3.538-.15.538.3-.119.539-.148c.24-.03.767-.18 1.237-.061.47.12 1.548.479 1.817.718 0 0 0-1.438-1.617-1.272 0 0-.659-.611-.449-1.12.209-.508 1.138-1.793.718-4.813-.103-.739-.201-1.021-.292-1.021-.277-.001-.475 2.678-.467 2.812"/></defs><clipPath id="X"><use xlink:href="#W" overflow="visible"/></clipPath><linearGradient id="Y" gradientUnits="userSpaceOnUse" x1="-2.586" y1="-3.103" x2="-2.298" y2="-3.103" gradientTransform="matrix(18.6615 0 0 -18.6615 59.328 -34.875)"><stop offset="0" stop-color="#920609"/><stop offset=".07" stop-color="#920609"/><stop offset=".489" stop-color="#f0492c"/><stop offset=".758" stop-color="#920609"/><stop offset="1" stop-color="#920609"/></linearGradient><path clip-path="url(#X)" fill="url(#Y)" d="M11.51 18.919h3.744v8.227H11.51z"/></g><g><defs><path id="Z" d="M28.668 7.273a13.003 13.003 0 0 0-.172-.504l-.281-.52c.035.027.217.204.393.519.081.146.123.312.199.456.091.171.347.117.444.279.062.104-.032.296-.162.361a.199.199 0 0 1-.088.023c-.221.002-.292-.482-.333-.614M25.689.81c-.01.598.232 1.369.39 1.991.158.622.467 1.338.835 1.945.368.607.325 1.222.325 1.222s.07.321-.356.573c0 0-.223.104-.312.197 0 0-.21.13.278.374 0 0 .374.196.405.309s-.002.558-.131.727c-.128.169-.369.335-.369.335s-.209.115-.073-.242.24-.607.029-.815c0 0-.311-.251-.574-.004 0 0-.209.115-.091.532s.25.955.263 1.238c.014.284.131.759.131.759s.141.232.121.3c-.02.067-.11.101-.154.088-.044-.013-.051.157.354.265 0 0 .14.178-.097.188 0 0-.465-.046-.26.053.206.099.395.144.472.136.076-.007.128-.002.128-.002s-.03.178-.111.271c-.081.095-.228.199-.228.199s.127.076.338-.029c.212-.105.277-.146.277-.146s.108.139-.042.252c-.15.113-.193.151-.193.151s.247.07.535-.082c0 0 .153-.053.2-.323 0 0 .079-.188.346-.229l.086-.299s-.329.199-.448.194c-.118-.005-.349-.146-.214-.225.134-.078.211-.151.211-.151l-.123-.043s-.314.145-.494-.143-.34-.451-.311-1.105c0 0 .068-.509.363-.836 0 0 .142-.268.525-.216l.01.326.046.197s.288-.248.387-.123c0 0-.039.407.006.502 0 0 .228-.235.332-.154.104.081.175.109.088.467 0 0-.043.149.033.245 0 0 .133-.352.352-.251 0 0 .363.098.26.538 0 0 .066.35-.372.76 0 0 .272.079.465-.034.192-.114.503-.413.503-.413l.43.168s-.134.352-.304.441l-.17.091.188.069s.564.067 1.061-.767l.057-.197-.863-1.427s-.091-.401.147-.7c0 0 .089-.306-.104-.633-.192-.328-.672-.931-.713-.927-.036.003.101.33.017.372 0 0-.188.07-.487-.384 0 0-.336-.413-.581-.478-.245-.062-.269-.055-.269-.055s-.162-.606-.5-1.094c0 0 .349.027.577.829 0 0 .568.068.798.539l.314.43s.084-.277.042-.595c-.297-.651-.693-1.165-1.179-1.688-.303-.325-.708-.538-.982-.892-.278-.356-.768-.999-.952-1.403-.184-.403-.336-.723-.409-1.221C25.876.262 25.925 0 25.925 0s-.225.211-.236.81"/></defs><clipPath id="aa"><use xlink:href="#Z" overflow="visible"/></clipPath><linearGradient id="ab" gradientUnits="userSpaceOnUse" x1="-4.538" y1="-5.394" x2="-4.249" y2="-5.394" gradientTransform="matrix(18.71 0 0 -18.71 110.594 -95.063)"><stop offset="0" stop-color="#ba141a"/><stop offset=".489" stop-color="#f15822"/><stop offset="1" stop-color="#ba141a"/></linearGradient><path clip-path="url(#aa)" fill="url(#ab)" d="M25.679 0h5.417v11.746h-5.417z"/></g><g><defs><path id="ac" d="M28.832 13.42c.106 1.449.722 2.988 1.567 3.921.853.94 1.463 1.966 1.821 3.056.023-.864.054-1.026.241-1.026l.084.012.042.048c.185.206.5 1.518.53 2.378.014.433-.021.92-.059 1.437-.038.524-.078 1.067-.07 1.611a4.1 4.1 0 0 0 .227 1.24c.005-.045.011-.087.019-.125.062-.308.154-.621.28-.961.238-.641.556-1.252.837-1.791.091-.175.177-.353.262-.529l.014-.028c.219-.454.432-.911.641-1.37.049-.108.1-.215.15-.322.157-.334.319-.679.43-1.031.103-.326.217-.706.27-1.089a3.149 3.149 0 0 0-.009-.94 6.866 6.866 0 0 0-.234-.915c-.071-.23-.144-.459-.216-.688l-.081-.258c-.09-.282-.182-.574-.286-.854l-.047-.124c.535 2.486-1.09 5.676-1.166 5.822l-.175.341-.093-.372c-.431-1.725-.545-1.832-2.452-3.62l-.394-.369c-1.46-1.372-1.944-3.141-2.101-4.293a3.877 3.877 0 0 0-.032.839"/></defs><clipPath id="ad"><use xlink:href="#ac" overflow="visible"/></clipPath><linearGradient id="ae" gradientUnits="userSpaceOnUse" x1="-3.638" y1="-2.652" x2="-3.349" y2="-2.652" gradientTransform="matrix(25.3496 0 0 -25.3496 121.031 -47.906)"><stop offset="0" stop-color="#f9a12c"/><stop offset=".957" stop-color="#ed1e25"/><stop offset="1" stop-color="#ed1e25"/></linearGradient><path clip-path="url(#ad)" fill="url(#ae)" d="M28.812 12.577h7.35v13.519h-7.35z"/></g><path fill="#F8971D" d="M29.06 14.076c.312.952.857 2.008 1.806 2.899l.394.37c1.915 1.795 1.99 1.865 2.41 3.549l.186.743.352-.681c.065-.126 1.247-2.447 1.287-4.695l.027.086c.072.229.145.458.216.688.093.303.181.599.229.896.048.294.051.597.009.898a6.713 6.713 0 0 1-.265 1.065c-.108.343-.261.668-.423 1.013l-.15.323c-.221.486-.43.934-.639 1.367l-.014.028c-.086.177-.171.353-.26.525-.283.544-.603 1.159-.844 1.809a7.314 7.314 0 0 0-.176.531c-.04-.2-.066-.415-.069-.638-.007-.538.032-1.077.069-1.6.038-.52.073-1.011.059-1.451-.026-.788-.323-2.198-.565-2.469a.31.31 0 0 0-.234-.108c-.223 0-.311.125-.351.475a8.886 8.886 0 0 0-1.604-2.456c-.7-.767-1.238-1.96-1.45-3.167m-.121-2.681c-.01.202-.069.403-.114.6-.109.476-.173.946-.138 1.437.102 1.378.668 2.974 1.604 4.007 1.845 2.035 1.972 3.86 2.025 3.86.003 0 .006-.007.009-.02.051-.218.012-1.765.135-1.764.006 0 .013.003.019.011.146.164.464 1.429.493 2.286.028.859-.144 1.955-.128 3.046.015 1.06.521 1.965.542 1.965v-.003c-.038-.222-.057-.596-.011-.82.065-.32.16-.633.274-.939.228-.613.528-1.195.83-1.774.096-.186.186-.374.277-.562.22-.455.434-.914.643-1.373.205-.452.437-.896.585-1.369.115-.364.222-.733.275-1.113a3.305 3.305 0 0 0-.01-.983 7.237 7.237 0 0 0-.238-.935c-.098-.315-.198-.629-.297-.943-.091-.29-.183-.58-.289-.864a6.117 6.117 0 0 0-.301-.684 6.213 6.213 0 0 0-.28-.481c-.016-.025-.117-.216-.156-.216h-.001c-.03.003.029.157.036.178.056.172.111.349.18.516 1.041 2.505-.954 6.369-.954 6.369-.469-1.88-.593-1.902-2.886-4.059-2.293-2.159-2.124-5.373-2.124-5.373"/><g><defs><path id="af" d="M37.482 9.298c-.071.217-.142.43-.202.627a8.003 8.003 0 0 0-.258 1.3c-.011.078-.022.159-.035.241-.048.328-.098.667-.066.964a5.85 5.85 0 0 1 .329-.79c.039-.082.077-.162.111-.239.351-.772.442-1.026.458-1.069.256-.75.188-1.476.01-2.164-.079.307-.2.686-.347 1.13"/></defs><clipPath id="ag"><use xlink:href="#af" overflow="visible"/></clipPath><linearGradient id="ah" gradientUnits="userSpaceOnUse" x1="-30.101" y1="-24.041" x2="-29.812" y2="-24.041" gradientTransform="matrix(3.7246 0 0 -3.7246 149.025 -79.246)"><stop offset="0" stop-color="#f9a12c"/><stop offset=".957" stop-color="#ed1e25"/><stop offset="1" stop-color="#ed1e25"/></linearGradient><path clip-path="url(#ag)" fill="url(#ah)" d="M36.889 8.167h1.186v4.263h-1.186z"/></g><path fill="#FAB915" d="M37.806 8.769a3.142 3.142 0 0 1-.124 1.516c-.015.042-.105.29-.452 1.058l-.11.235-.003.008.015-.099.034-.242c.052-.394.123-.852.253-1.277.06-.196.13-.408.201-.623l.186-.576m-.05-1.33c.124.358-.343 1.562-.614 2.442-.132.43-.205.879-.264 1.324-.051.388-.143.846-.101 1.239.035.316.146.648.243.952-.207-.651.216-1.369.473-1.938.372-.821.453-1.059.461-1.082.347-1.011.139-1.962-.198-2.937"/><g><defs><path id="ai" d="M44.609 5.28c.078.046.154.091.228.133.742.421.984.534 1.024.553.421.188.864.28 1.354.28.226 0 .463-.019.726-.059a7.435 7.435 0 0 1-.526-.237c-.099-.048-.19-.093-.271-.127-.996-.429-2.058-.849-3.162-.887.219.102.43.227.627.344"/></defs><clipPath id="aj"><use xlink:href="#ai" overflow="visible"/></clipPath><linearGradient id="ak" gradientUnits="userSpaceOnUse" x1="-9.481" y1="-7.41" x2="-9.192" y2="-7.41" gradientTransform="matrix(13.6973 0 0 -13.6973 173.852 -95.914)"><stop offset="0" stop-color="#f9a12c"/><stop offset=".957" stop-color="#ed1e25"/><stop offset="1" stop-color="#ed1e25"/></linearGradient><path clip-path="url(#aj)" fill="url(#ak)" d="M43.983 4.937h3.959v1.31h-3.959z"/></g><path fill="#FAB915" d="M44.683 5.155c.831.145 1.637.47 2.405.801.079.033.167.076.265.123a.429.429 0 0 0 .037.019 3.393 3.393 0 0 1-.174.004c-.47 0-.894-.088-1.295-.268-.04-.018-.276-.129-1.013-.546a10.034 10.034 0 0 1-.225-.133m-.862-.365c-.312 0-.626.03-.944.1.084-.018.168-.026.252-.026.585 0 1.161.406 1.636.676.785.445 1.015.548 1.037.559.472.211.941.292 1.414.292.507 0 1.016-.093 1.535-.22a.703.703 0 0 1-.168.019c-.447 0-1.025-.345-1.38-.498-1.082-.467-2.211-.902-3.382-.902"/><g><defs><path id="al" d="M36.089 10.892c-.409 1.289-.474 2.534-.108 3.847.171.611.411 1.193.511 1.823.089.559.159 1.118.119 1.686-.021.289-.106.526-.185.8l-.259.893s1.909-2.346 1.042-4.816c-.866-2.47-.713-1.928-.979-2.875 0 0-.184-1.242.245-2.139.001-.002-.22.254-.386.781"/></defs><clipPath id="am"><use xlink:href="#al" overflow="visible"/></clipPath><linearGradient id="an" gradientUnits="userSpaceOnUse" x1="-18.611" y1="-13.264" x2="-18.322" y2="-13.264" gradientTransform="matrix(5.8613 0 0 -5.8613 144.824 -62.719)"><stop offset="0" stop-color="#f9a12c"/><stop offset=".957" stop-color="#ed1e25"/><stop offset="1" stop-color="#ed1e25"/></linearGradient><path clip-path="url(#am)" fill="url(#an)" d="M35.615 10.109h2.461v9.83h-2.461z"/></g><g><defs><path id="ao" d="M42.029 17.716c-.196.517-.952 2.378-.125 4.465 0 0 .611 2.58 0 3.697l-.309.876s2.039-2.234 1.313-4.749c-.725-2.515-.603-1.966-.815-2.927 0 0-.113-1.25.365-2.121.001 0-.233.243-.429.759"/></defs><clipPath id="ap"><use xlink:href="#ao" overflow="visible"/></clipPath><linearGradient id="aq" gradientUnits="userSpaceOnUse" x1="-23.148" y1="-11.434" x2="-22.859" y2="-11.434" gradientTransform="matrix(5.3281 0 0 -5.3281 164.863 -39.07)"><stop offset="0" stop-color="#f9a12c"/><stop offset=".957" stop-color="#ed1e25"/><stop offset="1" stop-color="#ed1e25"/></linearGradient><path clip-path="url(#ap)" fill="url(#aq)" d="M41.077 16.957h2.557v9.797h-2.557z"/></g><g><defs><path id="ar" d="M36.212 6.229c.003.66.137 1.51.209 1.967.036.223.049.315.049.36l.003.082c.01.206.014.435-.003.654.255-.362.473-.746.502-1.117a1.396 1.396 0 0 0-.021-.356c-.059-.33-.217-.649-.385-.988-.13-.262-.262-.527-.349-.804a4.501 4.501 0 0 0-.005.202"/></defs><clipPath id="as"><use xlink:href="#ar" overflow="visible"/></clipPath><linearGradient id="at" gradientUnits="userSpaceOnUse" x1="-41.679" y1="-36.252" x2="-41.39" y2="-36.252" gradientTransform="matrix(2.6445 0 0 -2.6445 146.432 -88.207)"><stop offset="0" stop-color="#f9a12c"/><stop offset=".957" stop-color="#ed1e25"/><stop offset="1" stop-color="#ed1e25"/></linearGradient><path clip-path="url(#as)" fill="url(#at)" d="M36.212 6.027h.769v3.266h-.769z"/></g><path fill="#FEC20F" d="M36.384 6.786l.054.109c.163.329.317.64.373.95.021.11.026.215.019.318a1.591 1.591 0 0 1-.205.614 6.453 6.453 0 0 0-.008-.22c0-.056-.011-.137-.051-.384a19.2 19.2 0 0 1-.182-1.387m.123-2.233c-.056.094-.1.186-.136.276.076-.175.136-.276.136-.276m-.136.276c-.13.3-.307.814-.303 1.401.004.929.26 2.2.258 2.323-.001.124.084.98-.174 1.377l-.254.39c.407-.622 1.16-1.37 1.219-2.134.01-.133.001-.264-.022-.393-.175-.976-1.162-1.85-.724-2.964m-.473 5.491l-.004.006.004-.006"/><g><defs><path id="au" d="M42.165 6.391c-.765 1.387-.41 3.095-.409 3.103.384 1.372.345 2.627.263 3.43.226-.585.314-.739.468-.739.044 0 .151.018.189.185.109.487-.329 2.209-1.241 3.692a6.07 6.07 0 0 0-.672 1.539c.103-.133.212-.263.313-.384.096-.115.181-.217.24-.298.144-.195.293-.389.444-.583.393-.508.799-1.032 1.083-1.602.749-1.506.257-3.062-.22-4.567-.123-.389-.25-.79-.354-1.186-.263-1-.202-1.926-.009-2.763l-.095.173z"/></defs><clipPath id="av"><use xlink:href="#au" overflow="visible"/></clipPath><linearGradient id="aw" gradientUnits="userSpaceOnUse" x1="-14.296" y1="-10.077" x2="-14.007" y2="-10.077" gradientTransform="matrix(8.5352 0 0 -8.5352 162.781 -74.102)"><stop offset="0" stop-color="#f9a12c"/><stop offset=".957" stop-color="#ed1e25"/><stop offset="1" stop-color="#ed1e25"/></linearGradient><path clip-path="url(#av)" fill="url(#aw)" d="M40.762 6.218h2.83V17.6h-2.83z"/></g><path fill="#FAB915" d="M41.956 7.327c-.026.536.019 1.1.175 1.69.104.398.232.802.355 1.192.489 1.546.951 3.005.228 4.46-.276.556-.679 1.074-1.068 1.576-.148.191-.301.389-.446.587l-.018.024c.102-.232.226-.476.376-.722.945-1.537 1.376-3.276 1.258-3.8-.063-.282-.286-.297-.329-.297a.33.33 0 0 0-.274.141 9.14 9.14 0 0 0-.315-2.715 5.348 5.348 0 0 1 .058-2.136m.884-2.458l-.802 1.452c-.803 1.452-.422 3.211-.422 3.211.658 2.351.061 4.312.152 4.312.005 0 .014-.008.025-.022.172-.232.542-1.493.693-1.493.02 0 .036.021.047.072.095.424-.298 2.079-1.223 3.585-.815 1.325-.882 2.6-.87 2.6a.455.455 0 0 0 .007-.073c.026-.457.735-1.167.985-1.509.524-.716 1.142-1.406 1.539-2.205.973-1.956-.057-3.929-.562-5.854-.376-1.432-.098-2.713.431-4.076"/><g><defs><path id="ax" d="M42.763 15.566s2.251-1.053 4.659.235c0 0-1.387-1.226-2.814-1.226-.65.001-1.307.254-1.845.991"/></defs><clipPath id="ay"><use xlink:href="#ax" overflow="visible"/></clipPath><linearGradient id="az" gradientUnits="userSpaceOnUse" x1="-8.489" y1="-3.769" x2="-8.2" y2="-3.769" gradientTransform="scale(15.8906 -15.8906) rotate(7.212 -25.084 86.332)"><stop offset="0" stop-color="#f9a12c"/><stop offset=".957" stop-color="#ed1e25"/><stop offset="1" stop-color="#ed1e25"/></linearGradient><path clip-path="url(#ay)" fill="url(#az)" d="M42.602 14.534l4.747-.599.234 1.846-4.747.6z"/></g><g><defs><path id="aA" d="M50.882 4.745c-1.593 0-3.185-.232-3.993-.372-.549-.095-1.133-.187-1.708-.187a4.42 4.42 0 0 0-.718.056c.576.026 1.136.23 1.706.456.602.237 1.322.505 2.104.688.849.198 1.834.41 2.791.41.731 0 1.353-.122 1.899-.372.38-.175.936-.766 1.351-1.254-.816.383-1.966.575-3.432.575"/></defs><clipPath id="aB"><use xlink:href="#aA" overflow="visible"/></clipPath><linearGradient id="aC" gradientUnits="userSpaceOnUse" x1="-3.832" y1="-3.01" x2="-3.543" y2="-3.01" gradientTransform="matrix(34.0869 0 0 -34.0869 175.094 -97.625)"><stop offset="0" stop-color="#f9a12c"/><stop offset=".957" stop-color="#ed1e25"/><stop offset="1" stop-color="#ed1e25"/></linearGradient><path clip-path="url(#aB)" fill="url(#aC)" d="M44.463 4.171h9.851v1.626h-9.851z"/></g><path fill="#FEC20F" d="M45.651 4.35c.411.031.821.098 1.213.166.812.14 2.414.374 4.018.374 1.177 0 2.156-.124 2.929-.37-.328.351-.666.663-.908.774-.527.241-1.128.358-1.838.358-.94 0-1.917-.21-2.758-.406-.773-.181-1.487-.446-2.084-.683a13.253 13.253 0 0 0-.572-.213M55 3.552c-.874.812-2.506 1.049-4.118 1.049-1.591 0-3.164-.231-3.968-.369-.574-.1-1.158-.189-1.732-.189-.629 0-1.247.108-1.829.431a1.728 1.728 0 0 0-.476.367c.345-.205.663-.347 1.042-.417a2.25 2.25 0 0 1 .423-.039c.611 0 1.21.226 1.775.448.698.276 1.391.523 2.125.695.888.207 1.868.413 2.824.413.679 0 1.346-.104 1.959-.385C53.742 5.227 55 3.552 55 3.552"/><g><defs><path id="aD" d="M44.356 15.548a4.135 4.135 0 0 0-.751.118 2.751 2.751 0 0 0-.411.14 1.313 1.313 0 0 0-.199.109 3.204 3.204 0 0 1 1.124-.221c.188 0 .376.021.563.06.782.168 1.468.554 2.131.926.585.329 1.189.669 1.85.85.404.11.799.166 1.175.166.364 0 .705-.053 1.016-.157.464-.155.834-.427 1.17-.748a3.61 3.61 0 0 1-.609.188 3.493 3.493 0 0 1-.695.068c-.157 0-.32-.01-.482-.03-.598-.072-1.164-.259-1.637-.432a37.516 37.516 0 0 1-.468-.177 14.398 14.398 0 0 0-1.082-.379c-.533-.154-.976-.27-1.393-.361a5.706 5.706 0 0 0-.386-.074 4.212 4.212 0 0 0-.916-.046"/></defs><clipPath id="aE"><use xlink:href="#aD" overflow="visible"/></clipPath><linearGradient id="aF" gradientUnits="userSpaceOnUse" x1="-4.08" y1="-2.382" x2="-3.792" y2="-2.382" gradientTransform="matrix(31.2393 0 0 -31.2393 170.469 -57.781)"><stop offset="0" stop-color="#f9a12c"/><stop offset=".957" stop-color="#ed1e25"/><stop offset="1" stop-color="#ed1e25"/></linearGradient><path clip-path="url(#aE)" fill="url(#aF)" d="M42.995 15.54h9.028v2.155h-9.028z"/></g><path fill="#F8971D" d="M45.098 15.715c.05.006.1.013.149.021.123.021.25.045.379.072.414.093.854.206 1.384.36.36.104.721.242 1.069.375.156.061.313.12.47.178.482.176 1.058.365 1.669.439a3.749 3.749 0 0 0 1.142-.025 2.6 2.6 0 0 1-.554.266 3.02 3.02 0 0 1-.969.149c-.363 0-.746-.054-1.137-.161-.643-.176-1.214-.497-1.818-.836-.561-.315-1.14-.64-1.784-.838m-.489-.319a4.186 4.186 0 0 0-1.04.13 2.995 2.995 0 0 0-.434.147 1.4 1.4 0 0 0-.357.225c-.08.071-.154.146-.223.228a3.334 3.334 0 0 0-.163.213c.558-.277 1.114-.5 1.725-.5.173 0 .35.018.533.057 1.448.311 2.545 1.382 3.973 1.772.392.107.804.172 1.213.172.361 0 .721-.051 1.062-.165.751-.252 1.267-.791 1.751-1.343-.401.208-.81.41-1.266.505a3.298 3.298 0 0 1-.666.065c-.155 0-.311-.01-.465-.028-.555-.067-1.087-.235-1.605-.425-.518-.188-1.025-.404-1.559-.559a22.35 22.35 0 0 0-1.402-.364 5.97 5.97 0 0 0-.395-.075 4.202 4.202 0 0 0-.682-.055"/><g><defs><path id="aG" d="M46.769 14.798l.064.039c.268.161.528.333.788.506.229.15.457.302.69.445l.068.042c.528.326 1.126.695 1.737.762a2.104 2.104 0 0 0 1.683-.591 5.244 5.244 0 0 1 2.185-1.203 2.62 2.62 0 0 0-.811-.133c-.229 0-.456.032-.677.095a6.941 6.941 0 0 1-1.741.242l1.059.591-.312.104c-.011.003-.286.093-.695.093-.239 0-.476-.03-.705-.091-.3-.079-.564-.186-.928-.333-.489-.198-1.158-.469-2.313-.827a14.683 14.683 0 0 1-.159-.053c-.281-.093-.72-.239-1.108-.284.418.135.817.378 1.175.596"/></defs><clipPath id="aH"><use xlink:href="#aG" overflow="visible"/></clipPath><linearGradient id="aI" gradientUnits="userSpaceOnUse" x1="-4.604" y1="-2.656" x2="-4.314" y2="-2.656" gradientTransform="matrix(29.0254 0 0 -29.0254 179.219 -61.703)"><stop offset="0" stop-color="#f9a12c"/><stop offset=".957" stop-color="#ed1e25"/><stop offset="1" stop-color="#ed1e25"/></linearGradient><path clip-path="url(#aH)" fill="url(#aI)" d="M45.597 14.201h8.389v2.402h-8.389z"/></g><path fill="#FAB915" d="M46.872 14.691a25.46 25.46 0 0 1 2.25.808c.356.144.637.257.945.339.241.063.49.096.742.096.425 0 .71-.09.742-.101l.356-.118a6.673 6.673 0 0 0-.206.181l-.008.009-.007.008c-.005.005-.518.547-1.343.547-.069 0-.141-.004-.211-.011-.578-.062-1.162-.423-1.677-.741l-.068-.042c-.23-.142-.461-.295-.687-.443-.257-.169-.522-.345-.792-.508l-.036-.024m6.303.119c.092 0 .18.006.264.016a5.388 5.388 0 0 0-1.357.75l-.481-.269-.333-.186a6.632 6.632 0 0 0 1.271-.223c.206-.058.421-.088.636-.088m-7.793-.766c-.244 0-.45.057-.561.211.06-.004.121-.007.181-.007.119 0 .239.01.353.036.492.112.983.421 1.403.676.5.304.979.644 1.477.95.561.346 1.196.753 1.867.825.083.009.163.013.241.013.974 0 1.556-.642 1.556-.642 1.163-1.086 2.555-1.261 2.555-1.261s-.525-.324-1.28-.324c-.221 0-.463.027-.716.1-.702.2-1.419.237-1.856.237-.26 0-.421-.013-.421-.013l1.278.713s-.26.087-.65.087c-.195 0-.423-.022-.668-.087-.695-.184-1.238-.538-3.234-1.158-.272-.086-.99-.356-1.525-.356"/><g><defs><path id="aJ" d="M51.853 26.245a5.454 5.454 0 0 1-.581.112 3.511 3.511 0 0 1-.463.027c-1.274 0-3.247-.486-3.265-.491l-.328-.083c-.366-.094-.711-.183-1.076-.235a5.695 5.695 0 0 0-.833-.064c-.479 0-.925.067-1.366.206-.376.117-.773.26-1.122.498-.071.048-.143.1-.215.153a6.015 6.015 0 0 1 1.499-.201c.345 0 .679.035.992.106.383.086.765.175 1.147.264l.549.127c.366.085.733.168 1.101.247.648.139 1.182.204 1.682.204.283 0 .553-.021.823-.063a6.55 6.55 0 0 0 .718-.153c.665-.181 1.196-.408 1.624-.694a3.59 3.59 0 0 0 .798-.717l.116-.145c-.583.456-1.154.743-1.8.902"/></defs><clipPath id="aK"><use xlink:href="#aJ" overflow="visible"/></clipPath><linearGradient id="aL" gradientUnits="userSpaceOnUse" x1="-3.301" y1="-1.316" x2="-3.012" y2="-1.316" gradientTransform="matrix(38.2207 0 0 -38.2207 168.781 -24.094)"><stop offset="0" stop-color="#f9a12c"/><stop offset=".957" stop-color="#ed1e25"/><stop offset="1" stop-color="#ed1e25"/></linearGradient><path clip-path="url(#aK)" fill="url(#aL)" d="M42.604 25.342h11.047v1.773H42.604z"/></g><path fill="#F8971D" d="M45.306 25.656c.26 0 .526.02.812.062.357.052.699.14 1.061.232.11.028.22.057.328.083.019.005 2.01.496 3.301.496.181 0 .343-.01.483-.029.197-.027.398-.065.597-.115a4.27 4.27 0 0 0 .584-.186c-.381.225-.84.408-1.396.56a6.545 6.545 0 0 1-.702.15 5.145 5.145 0 0 1-.801.062c-.489 0-1.014-.064-1.652-.201a82.901 82.901 0 0 1-1.099-.245l-.549-.128c-.382-.089-.765-.178-1.147-.265a4.727 4.727 0 0 0-1.024-.109c-.249 0-.489.018-.714.047.196-.085.399-.153.596-.215a4.337 4.337 0 0 1 1.322-.199m9.255-1.215c-.309.278-.66.52-.987.777-.535.423-1.09.723-1.755.887a5.484 5.484 0 0 1-.566.109 3.344 3.344 0 0 1-.443.025c-1.251 0-3.217-.483-3.231-.486-.473-.117-.933-.251-1.417-.321a5.792 5.792 0 0 0-.854-.065c-.473 0-.939.064-1.409.212-.41.128-.804.273-1.16.516a5.83 5.83 0 0 0-.461.351c-.11.094-.229.245-.363.306a5.996 5.996 0 0 1 2.188-.439c.31 0 .634.029.961.103.565.127 1.128.261 1.694.391a58.7 58.7 0 0 0 1.104.247 8.09 8.09 0 0 0 1.712.207c.278 0 .56-.02.845-.064.248-.039.493-.091.734-.157.583-.158 1.162-.376 1.666-.714a3.736 3.736 0 0 0 .83-.747c.289-.36.583-.718.87-1.079.013-.021.028-.04.042-.059m-12.647 2.31l-.007.003a.049.049 0 0 1 .007-.003"/><g><defs><path id="aM" d="M53.256 24.721a6.763 6.763 0 0 1-.981.244 4.316 4.316 0 0 1-.478.041 9.621 9.621 0 0 1-.294.01c-.248.008-.506.015-.751.052a4.88 4.88 0 0 0-1.357.394c-.065.031-.13.064-.194.099.167.012.331.03.496.049.253.028.513.058.768.059h.004a5.96 5.96 0 0 0 1.246-.145 6.32 6.32 0 0 0 .361-.087 4.486 4.486 0 0 0 1.791-.95 4.347 4.347 0 0 1-.611.234"/></defs><clipPath id="aN"><use xlink:href="#aM" overflow="visible"/></clipPath><linearGradient id="aO" gradientUnits="userSpaceOnUse" x1="-8.822" y1="-3.293" x2="-8.533" y2="-3.293" gradientTransform="matrix(16.1416 0 0 -16.1416 191.61 -28.094)"><stop offset="0" stop-color="#f9a12c"/><stop offset=".957" stop-color="#ed1e25"/><stop offset="1" stop-color="#ed1e25"/></linearGradient><path clip-path="url(#aN)" fill="url(#aO)" d="M49.201 24.485h4.666v1.182h-4.666z"/></g><path fill="#F8971D" d="M52.855 24.988c-.258.128-.53.23-.816.309a8.943 8.943 0 0 1-.354.085c-.45.095-.848.141-1.22.141-.236 0-.471-.025-.718-.054.31-.116.654-.203 1.026-.259.237-.036.479-.043.734-.05.099-.002.198-.005.296-.01a4.85 4.85 0 0 0 .492-.042c.191-.028.377-.071.56-.12m2.095-1.507c-.035.05-.097.095-.143.138l-.146.136c-.1.091-.204.178-.31.261-.343.268-.717.44-1.132.565a6.578 6.578 0 0 1-.965.241 4.765 4.765 0 0 1-.463.04c-.353.016-.709.009-1.06.062a5.003 5.003 0 0 0-1.397.406c-.235.11-.465.25-.668.412.042-.034.123-.041.175-.046.035-.003.071-.005.107-.005.066 0 .132.005.198.009.441.026.877.109 1.32.11h.004c.429 0 .857-.06 1.276-.147.124-.026.247-.057.369-.089 1.212-.326 2.126-1.075 2.835-2.093M40.972 21.125c-.526-.606-.75-1.275-.666-1.988.192-1.616 1.917-2.864 1.99-2.917l2.012-1.437-1.625 1.861c-1.682 1.924-1.214 4.208-1.209 4.23l.237 1.099-.739-.848z"/><g><defs><path id="aP" d="M41.19 20.936s-.522-2.426 1.274-4.481c0-.001-3.189 2.275-1.274 4.481"/></defs><clipPath id="aQ"><use xlink:href="#aP" overflow="visible"/></clipPath><linearGradient id="aR" gradientUnits="userSpaceOnUse" x1="-18.587" y1="-10.574" x2="-18.298" y2="-10.574" gradientTransform="matrix(6.5254 0 0 -6.5254 161.863 -50.3)"><stop offset="0" stop-color="#f9a12c"/><stop offset=".957" stop-color="#ed1e25"/><stop offset="1" stop-color="#ed1e25"/></linearGradient><path clip-path="url(#aQ)" fill="url(#aR)" d="M39.275 16.454h3.189v4.481h-3.189z"/></g></svg>